<?xml version="1.0" encoding="UTF-8" standalone="no"?>
<!-- Created with Inkscape (http://www.inkscape.org/) -->

<svg
   xmlns:dc="http://purl.org/dc/elements/1.1/"
   xmlns:cc="http://creativecommons.org/ns#"
   xmlns:rdf="http://www.w3.org/1999/02/22-rdf-syntax-ns#"
   xmlns:svg="http://www.w3.org/2000/svg"
   xmlns="http://www.w3.org/2000/svg"
   xmlns:sodipodi="http://sodipodi.sourceforge.net/DTD/sodipodi-0.dtd"
   xmlns:inkscape="http://www.inkscape.org/namespaces/inkscape"
   version="1.1"
   id="svg869"
   width="452"
   height="291"
   viewBox="0 0 452 291"
   sodipodi:docname="grogu.svg"
   inkscape:version="0.92.5 (2060ec1f9f, 2020-04-08)">
  <metadata
     id="metadata875">
    <rdf:RDF>
      <cc:Work
         rdf:about="">
        <dc:format>image/svg+xml</dc:format>
        <dc:type
           rdf:resource="http://purl.org/dc/dcmitype/StillImage" />
        <dc:title />
      </cc:Work>
    </rdf:RDF>
  </metadata>
  <defs
     id="defs873" />
  <sodipodi:namedview
     pagecolor="#ffffff"
     bordercolor="#666666"
     borderopacity="1"
     objecttolerance="10"
     gridtolerance="10"
     guidetolerance="10"
     inkscape:pageopacity="0"
     inkscape:pageshadow="2"
     inkscape:window-width="1600"
     inkscape:window-height="836"
     id="namedview871"
     showgrid="false"
     inkscape:zoom="4.7079648"
     inkscape:cx="9.3604347"
     inkscape:cy="253.72851"
     inkscape:window-x="0"
     inkscape:window-y="27"
     inkscape:window-maximized="1"
     inkscape:current-layer="g912" />
  <g
     id="g912">
    <path
       inkscape:connector-curvature="0"
       id="head"
       d="M 4.1751368,36.82325 0.0969416,37.63889 H -4.7968936 -7.85554 l -6.117293,-2.24301 -5.301653,-1.83519 -4.689926,-2.85473 -5.301653,-3.87429 -7.544664,-3.46647 -3.466464,-2.65082 -4.282104,-1.22346 h -7.544664 l -8.360299,-0.20391 -7.952482,-2.0391 -9.175939,-4.0782 -7.34075,-3.05864 -8.360304,0.20391 H -98.18757 V 6.84851 l 2.650828,-1.01955 21.002708,-3.67037 17.332329,-4.0782 7.136842,-1.63128 6.321206,-1.22346 3.874282,-2.0391 7.952481,-7.13684 8.360304,-5.70947 8.972031,-4.48601 8.564208,-2.0391 7.1368414,0.20391 8.5642128,1.42737 10.8072148,2.85474 7.748572,4.89383 6.729024,4.89383 4.282104,4.48602 6.525116,1.22346 12.234585,3.46646 16.108872,0.81564 9.175939,0.61173 7.340751,2.24301 0.203913,4.2821 -9.175944,-0.81563 -2.650824,0.40781 -1.835188,3.26256 -8.3603,5.50557 -5.097744,3.26255 -9.991579,0.40782 -7.748573,-0.20391 -9.379848,1.01955 -2.854737,5.50556 -3.058647,2.44692 -3.26256,0.81564 -4.689921,1.60866 -5.169963,1.777121 -4.107933,2.414339 -4.3203391,2.361238 z"
       style="fill:none;stroke:#000000;stroke-width:0.47999999px;stroke-linecap:butt;stroke-linejoin:miter;stroke-opacity:1"
       sodipodi:nodetypes="ccccccccccccccccccccccccccccccccccccccccccccccccccccccccc" />
    <path
       inkscape:connector-curvature="0"
       id="right_eye"
       d="m 10.241454,6.95047 1.325414,-2.34496 2.293982,-3.00768 2.44692,-1.63128 1.784208,-1.1215 2.192031,-0.30586 h 2.548872 l 2.395939,1.27443 1.835189,2.44692 1.121505,2.09008 0.662708,1.83518 -1.325415,1.88617 -1.325414,1.83519 -1.682256,1.32541 -1.529323,0.61173 -2.95669,0.35685 L 16.817545,11.69137 13.147167,11.1816 11.872734,10.36596 9.833636,8.98957 9.5277704,8.37783 Z"
       style="fill:none;stroke:#000000;stroke-width:0.47999999px;stroke-linecap:butt;stroke-linejoin:miter;stroke-opacity:1" />
    <path
       inkscape:connector-curvature="0"
       id="left_eye"
       d="m -25.391778,12.65994 -1.63128,-1.63128 -2.446916,-2.19203 -0.917596,-1.42737 1.682256,-2.14105 2.090078,-2.24301 1.988117,-1.42737 2.752785,-1.32541 1.937141,-0.30587 2.548872,0.20392 3.364512,0.96857 2.344963,1.78421 1.937141,2.39594 1.223458,2.80376 v 0.96857 l -0.866616,0.91759 -1.682256,1.22346 -1.988117,1.22346 -2.497896,1.22346 -1.886165,0.20391 -3.568421,-0.10196 -2.090078,-0.25489 z"
       style="fill:none;stroke:#000000;stroke-width:0.47999999px;stroke-linecap:butt;stroke-linejoin:miter;stroke-opacity:1" />
    <path
       inkscape:connector-curvature="0"
       id="mouth"
       d="m -12.538607,22.55368 3.820929,1.00931 5.9837188,0.57674 8.4348768,-0.14419 4.5418604,-0.72092 2.306976,-0.72094"
       style="fill:none;stroke:#000000;stroke-width:0.47999999px;stroke-linecap:butt;stroke-linejoin:miter;stroke-opacity:1" />
  </g>
</svg>
