<?xml version="1.0" encoding="UTF-8" standalone="no"?>
<!-- Created with Inkscape (http://www.inkscape.org/) -->

<svg
   xmlns:dc="http://purl.org/dc/elements/1.1/"
   xmlns:cc="http://creativecommons.org/ns#"
   xmlns:rdf="http://www.w3.org/1999/02/22-rdf-syntax-ns#"
   xmlns:svg="http://www.w3.org/2000/svg"
   xmlns="http://www.w3.org/2000/svg"
   xmlns:sodipodi="http://sodipodi.sourceforge.net/DTD/sodipodi-0.dtd"
   xmlns:inkscape="http://www.inkscape.org/namespaces/inkscape"
   width="210mm"
   height="297mm"
   viewBox="0 0 210 297"
   version="1.1"
   id="svg2158"
   inkscape:version="0.92.5 (2060ec1f9f, 2020-04-08)"
   sodipodi:docname="flybot.svg">
  <defs
     id="defs2152" />
  <sodipodi:namedview
     id="base"
     pagecolor="#ffffff"
     bordercolor="#666666"
     borderopacity="1.0"
     inkscape:pageopacity="0.0"
     inkscape:pageshadow="2"
     inkscape:zoom="3.959798"
     inkscape:cx="-3.3967286"
     inkscape:cy="1113.2212"
     inkscape:document-units="mm"
     inkscape:current-layer="g6512"
     showgrid="false"
     inkscape:window-width="1920"
     inkscape:window-height="1016"
     inkscape:window-x="0"
     inkscape:window-y="27"
     inkscape:window-maximized="1" />
  <metadata
     id="metadata2155">
    <rdf:RDF>
      <cc:Work
         rdf:about="">
        <dc:format>image/svg+xml</dc:format>
        <dc:type
           rdf:resource="http://purl.org/dc/dcmitype/StillImage" />
        <dc:title></dc:title>
      </cc:Work>
    </rdf:RDF>
  </metadata>
  <g
     inkscape:label="Layer 1"
     inkscape:groupmode="layer"
     id="layer1">
    <g
       id="g2722"
       transform="matrix(0.262144,0,0,0.262144,12.616615,-36.837192)">
      <g
         id="g6512"
         transform="matrix(0.13421773,0,0,0.13421773,24.186632,-6.6881193)">
        <path
           sodipodi:nodetypes="cssccsccsscscccscccscsc"
           inkscape:connector-curvature="0"
           id="head"
           d="m -50.578386,-411.519 c -155.059684,129.28887 -270.372504,110.28285 -356.268064,173.27273 -50.06969,36.71635 -92.9875,88.71612 -111.20514,143.470801 -18.21759,54.754359 20.21844,27.069337 20.21844,27.069337 l 8.17226,-19.928137 c 0,0 27.90887,-13.983021 56.11819,-22.352121 28.20968,-8.36822 46.45631,16.929621 53.84057,29.456237 12.71559,18.671022 20.01009,34.929043 14.93786,68.642585 -11.12923,54.046184 -17.09036,77.870505 -51.2347,124.304668 -26.79162,36.43576 -42.02593,53.64858 -58.40393,57.84628 -16.37783,4.19802 -49.66052,-16.10892 -49.66052,-16.10892 0,0 -17.34106,56.11158 32.87829,147.5197 3.28449,5.9785 13.82269,16.60502 21.73506,12.26252 14.56178,-9.80402 37.52969,-24.83464 68.06967,-36.41846 106.44863,-39.43414 144.03817,-101.06382 232.13825,-159.2087 50.18665,-40.766162 99.794133,-62.080683 138.393315,-69.277204 7.681751,-1.4327 16.848821,-7.5381 16.848821,-7.5381 v 0 c 0,0 -8.41907,-122.869069 6.343321,-184.605476 14.762201,-61.73638 25.065361,-67.59687 26.770501,-77.69289 1.705011,-10.09591 0.10525,-24.70992 0.10525,-24.70992 0,0 -12.46827,-106.55615 -64.111154,-160.10832 z"
           style="fill:none;stroke:#000000;stroke-width:1.00930548px;stroke-linecap:butt;stroke-linejoin:miter;stroke-opacity:1" />
        <path
           sodipodi:nodetypes="cscccc"
           inkscape:connector-curvature="0"
           id="mask"
           d="m -492.19678,-109.37059 c -18.06749,110.11274302 -24.11941,201.969169 -20.49537,301.96831 3.53398,97.51442 117.8587,-28.68984 117.8587,-28.68984 l 65.85711,-199.007969 -58.4876,-121.604071 z"
           style="fill:none;stroke:#000000;stroke-width:1.00930548px;stroke-linecap:butt;stroke-linejoin:miter;stroke-opacity:1" />
        <path
           inkscape:connector-curvature="0"
           id="eye"
           d="m -481.6177,-4.458947 c -0.2475,22.064321 1.35118,47.142563 7.10148,60.157084 5.75034,13.01382 35.08897,17.568021 52.81775,-11.659821 17.72862,-29.227942 18.49968,-58.669884 15.13768,-72.833205 -3.36135,-14.162821 -75.05691,24.335942 -75.05691,24.335942 z"
           style="fill:none;stroke:#000000;stroke-width:1.00930548px;stroke-linecap:butt;stroke-linejoin:miter;stroke-opacity:1" />
        <path
           inkscape:connector-curvature="0"
           id="arm"
           d="m -86.639879,232.28726 c -93.455771,76.31492 -114.381961,108.12166 -113.137201,210.87718 1.2447,102.75564 57.36973,113.12556 119.077502,146.8961 85.719645,46.57606 173.678391,31.96874 192.563908,71.339 20.02283,41.74206 28.20915,34.41624 42.80173,23.74024 27.83506,-13.50462 53.0058,-44.42376 66.66748,-72.2573 7.38205,-26.37874 -2.05217,-29.33844 -27.12088,-40.70126 C 147.53334,544.00958 130.91198,475.368 103.04191,427.52932 75.171682,379.69116 35.059869,310.66558 4.360837,279.56084 -26.338325,248.4561 -47.471096,228.47876 -86.639879,232.28726 Z"
           style="fill:none;stroke:#000000;stroke-width:1.00930548px;stroke-linecap:butt;stroke-linejoin:miter;stroke-opacity:1"
           sodipodi:nodetypes="cscscccccc" />
        <path
           sodipodi:nodetypes="cscsssssccssscscccsc"
           inkscape:connector-curvature="0"
           d="m -349.75259,355.38414 c 41.73021,185.77974 84.7864,259.98614 149.71436,332.59254 64.92781,72.6073 123.772732,109.34014 123.772732,109.34014 l 59.915254,14.11002 c 0,0 57.673174,9.00472 146.695354,88.77452 51.17563,45.85686 63.72432,76.0803 63.45118,118.61944 -0.27311,42.54 10.03833,74.744 36.75533,76.2238 26.7172,1.4802 91.71513,-10.0689 150.49514,-26.5738 58.77996,-16.5043 77.9343,-24.181 112.06972,-40.514 34.1356,-16.332 39.37096,-26.4985 11.6987,-45.42604 C 477.14295,963.60374 450.66773,952.01202 424.45093,927.9879 398.23418,903.96386 374.84675,868.86482 354.06395,815.44874 315.40643,716.09172 340.05044,671.60156 299.65466,503.28452 276.78592,407.998 226.49981,301.32306 177.87369,245.88068 129.2478,190.43912 126.01368,178.0456 15.641688,86.334379 1.506977,74.589358 -17.155034,68.277357 -17.155034,68.277357 v 0 m 0,0 C -108.44635,101.3661 -160.14488,142.60964 -213.05739,198.92542 c -59.45521,63.27788 -73.43844,115.36486 -136.6952,156.45872"
           style="fill:none;stroke:#000000;stroke-width:1.00930548px;stroke-linecap:butt;stroke-linejoin:miter;stroke-opacity:1"
           id="body" />
        <path
           inkscape:connector-curvature="0"
           id="pack"
           d="m 123.90336,124.48692 c -12.77182,-114.892747 4.05503,-147.570609 44.17043,-175.696631 40.11533,-28.126341 96.23281,-47.185488 132.50959,-56.617879 36.27699,-9.43192 83.24928,-5.91473 128.44573,36.376338 45.19642,42.290263 82.27263,76.265605 138.49071,187.071572 56.21822,110.80684 60.0658,146.68868 68.59041,203.99526 8.52451,57.30778 -13.01369,99.13484 -43.97957,131.97288 -30.96576,32.83734 -92.02923,80.7701 -119.15637,94.91362 -27.12723,14.14342 -99.79823,42.86906 -99.79823,42.86906 0,0 -0.61282,-114.41934 -96.08694,-269.41836 C 181.61474,164.95348 123.90336,124.48692 123.90336,124.48692 Z"
           style="fill:none;stroke:#000000;stroke-width:1.00930548px;stroke-linecap:butt;stroke-linejoin:miter;stroke-opacity:1" />
      </g>
    </g>
  </g>
</svg>
