<?xml version="1.0" encoding="UTF-8" standalone="no"?>
<!-- Created with Inkscape (http://www.inkscape.org/) -->

<svg
   xmlns:dc="http://purl.org/dc/elements/1.1/"
   xmlns:cc="http://creativecommons.org/ns#"
   xmlns:rdf="http://www.w3.org/1999/02/22-rdf-syntax-ns#"
   xmlns:svg="http://www.w3.org/2000/svg"
   xmlns="http://www.w3.org/2000/svg"
   xmlns:sodipodi="http://sodipodi.sourceforge.net/DTD/sodipodi-0.dtd"
   xmlns:inkscape="http://www.inkscape.org/namespaces/inkscape"
   width="210mm"
   height="297mm"
   viewBox="0 0 210 297"
   version="1.1"
   id="svg8"
   inkscape:version="0.92.5 (2060ec1f9f, 2020-04-08)"
   sodipodi:docname="flybot.svg">
  <defs
     id="defs2" />
  <sodipodi:namedview
     id="base"
     pagecolor="#ffffff"
     bordercolor="#666666"
     borderopacity="1.0"
     inkscape:pageopacity="0.0"
     inkscape:pageshadow="2"
     inkscape:zoom="0.1767767"
     inkscape:cx="322.6704"
     inkscape:cy="728.04058"
     inkscape:document-units="mm"
     inkscape:current-layer="g878"
     showgrid="false"
     inkscape:window-width="1600"
     inkscape:window-height="836"
     inkscape:window-x="0"
     inkscape:window-y="27"
     inkscape:window-maximized="1" />
  <metadata
     id="metadata5">
    <rdf:RDF>
      <cc:Work
         rdf:about="">
        <dc:format>image/svg+xml</dc:format>
        <dc:type
           rdf:resource="http://purl.org/dc/dcmitype/StillImage" />
        <dc:title />
      </cc:Work>
    </rdf:RDF>
  </metadata>
  <g
     inkscape:label="Layer 1"
     inkscape:groupmode="layer"
     id="layer1">
    <g
       id="g878"
       transform="matrix(1.9898038,-0.20169526,0.20169526,1.9898038,-1.0264998,-1.5741931)">
      <path
         inkscape:connector-curvature="0"
         id="body"
         d="m 34.728352,-30.65967 -8.560095,3.579479 -15.320973,7.900441 -18.798786,12.2345013 -13.207122,7.24182498 -4.122542,1.80719642 -3.527835,0.7570098 -3.21322,-0.6430902 1.667959,6.8176215 2.109549,8.8755162 2.010321,4.591474 4.251161,7.390911 6.625278,11.289254 6.7018488,9.735237 10.0765565,12.086313 8.0662267,7.494808 5.258058,3.484554 5.978935,3.022362 3.2414,1.252083 2.716099,0.237237 4.22094,-0.393217 3.870627,-1.548089 4.213001,-3.774264 3.652356,-5.909097 3.427423,-9.346098 L 49.611517,46.820135 50.203375,35.724821 49.738726,26.393826 48.236995,13.185101 44.472547,-5.7910905 41.886098,-17.84452 40.765289,-20.67924 39.36437,-23.8639 36.927151,-28.056267 Z"
         style="fill:none;stroke:#000000;stroke-width:0.79374993px;stroke-linecap:butt;stroke-linejoin:miter;stroke-opacity:1" />
      <path
         inkscape:connector-curvature="0"
         id="head"
         d="m 23.244547,-43.571548 -3.042966,7.315944 -2.812481,5.52385 -3.673808,4.376115 -4.1149965,3.753207 -8.1883313,6.267393 -8.8116213,5.273576 -9.9387779,4.7978607 -6.565281,2.8439223 -2.582788,0.861724 -3.471885,0.5400417 -2.989064,-0.076182 -3.437383,-1.2100278 -3.465572,-1.8190489 -1.379484,-1.6516161 -0.462204,-0.7208814 0.972804,-0.7213038 2.240016,-0.07062 2.631981,-0.1547604 3.499668,-1.3660043 2.750604,-1.512804 2.295548,-1.72266 1.357639,-1.316411 1.036353,-2.428085 1.090724,-2.517287 0.702171,-2.470179 0.187377,-2.504659 -0.31238,-1.962521 -0.641611,-2.145558 -0.931265,-2.482057 -1.564863,-2.563542 -1.985676,-2.835671 -2.057202,-1.986726 -2.324418,-1.711977 -2.213047,-1.699608 -2.133653,-0.991854 -1.96785,-1.063636 -1.589116,-0.81872 -2.710302,-0.976825 -2.752236,-0.496656 -1.682829,0.433516 -1.870913,0.401471 -0.742588,-0.420528 1.088194,-2.69795 3.081974,-6.242551 3.823294,-4.56521 4.030893,-4.145157 3.653187,-3.039078 5.536124,-3.340609 6.46729,-2.822871 6.02651,-2.010731 5.487743,-1.17757 9.247279,0.578389 3.4163582,1.112045 4.0186278,2.007889 3.7036065,1.972944 8.0447735,5.961756 2.324931,3.191355 2.059106,3.86346 1.079118,4.073756 0.749833,3.016818 0.161898,3.142977 z"
         style="fill:none;stroke:#000000;stroke-width:0.79374993px;stroke-linecap:butt;stroke-linejoin:miter;stroke-opacity:1" />
      <path
         inkscape:connector-curvature="0"
         id="mask"
         d="m -47.212628,-48.031549 -1.524659,4.837464 -0.12495,3.717058 0.330122,3.926966 0.988309,4.605736 0.680447,5.081859 2.704249,7.82532 2.36066,5.746408 4.313826,6.2498665 8.231605,-1.7663543 8.160164,-6.8764192 2.341896,-11.060793 -4.286864,-9.945879 -7.226317,-7.880006 -5.41872,-2.322492 -7.980902,-2.797743 -3.037852,0.65187 z"
         style="fill:none;stroke:#000000;stroke-width:0.79374993px;stroke-linecap:butt;stroke-linejoin:miter;stroke-opacity:1" />
      <path
         inkscape:connector-curvature="0"
         id="eye"
         d="m -35.028178,-32.8099 1.400918,3.184641 0.644719,2.526814 -0.09717,2.891085 -1.94521,2.877593 -1.728602,1.498492 -2.330871,0.602645 -1.84884,-2.883522 -1.064884,-3.051741 -0.630833,-2.93984 0.97241,-2.156283 2.120583,-1.582624 1.840887,-0.497492 z"
         style="fill:none;stroke:#000000;stroke-width:0.79374993px;stroke-linecap:butt;stroke-linejoin:miter;stroke-opacity:1" />
      <path
         inkscape:connector-curvature="0"
         id="arm"
         d="m 34.388579,5.4959108 3.756845,17.0301622 2.888016,13.936377 0.625302,8.168927 -1.936832,7.693654 -4.89058,8.737494 -4.81404,7.183457 -3.919401,2.276163 -5.368721,1.254511 L 18.40976,63.35622 14.527536,48.608126 9.8597146,28.28817 5.521195,9.0251514 4.420188,1.9833603 4.7196903,-3.308784 6.5669062,-6.1653493 9.8352603,-8.6093149 13.97883,-10.318512 l 3.31795,-0.301957 4.214212,0.530838 3.556415,1.2869976 3.654814,2.7010141 2.430072,3.6813417 1.926224,4.1995053 z"
         style="fill:none;stroke:#000000;stroke-width:0.79374993px;stroke-linecap:butt;stroke-linejoin:miter;stroke-opacity:1" />
    </g>
  </g>
</svg>
